<svg width="263" height="60" viewBox="0 0 263 60" fill="none" xmlns="http://www.w3.org/2000/svg">
<g clip-path="url(#clip0_1737_1254)">
<path d="M227.668 19.3318H237.795L244.599 28.8197L251.5 19.3318H261.531L249.647 35.7839L263 54.0889H252.873L244.599 42.6842L236.421 54.0889H226.422L239.584 35.7839L227.668 19.3318Z" fill="white"/>
<path d="M216.537 5.02C218.07 5.02 219.38 5.57373 220.466 6.68119C221.573 7.78865 222.127 9.13037 222.127 10.7064C222.127 12.2611 221.584 13.5921 220.498 14.6996C219.412 15.7858 218.113 16.3288 216.601 16.3288C215.046 16.3288 213.715 15.7751 212.607 14.6677C211.521 13.5389 210.978 12.1759 210.978 10.5786C210.978 9.04518 211.521 7.7354 212.607 6.64924C213.693 5.56308 215.003 5.02 216.537 5.02ZM212.16 19.3318H220.913V54.0889H212.16V19.3318Z" fill="white"/>
<path d="M188.155 19.3318H195.63V23.7083C196.439 21.9833 197.515 20.6735 198.857 19.779C200.198 18.8845 201.668 18.4373 203.265 18.4373C204.394 18.4373 205.576 18.7354 206.811 19.3318L204.096 26.839C203.073 26.3279 202.232 26.0723 201.572 26.0723C200.23 26.0723 199.091 26.9029 198.154 28.5641C197.238 30.2253 196.78 33.4838 196.78 38.3396L196.812 40.0327V54.0889H188.155V19.3318Z" fill="white"/>
<path d="M153.703 5.91447V23.1652C155.279 21.5892 156.983 20.4073 158.814 19.6193C160.646 18.8313 162.605 18.4373 164.692 18.4373C169.229 18.4373 173.083 20.1517 176.257 23.5805C179.43 27.0094 181.017 31.4073 181.017 36.7742C181.017 41.9494 179.377 46.2834 176.097 49.7762C172.817 53.2476 168.93 54.9833 164.437 54.9833C162.435 54.9833 160.571 54.6319 158.846 53.9291C157.121 53.205 155.407 52.0337 153.703 50.4151V54.0889H145.046V5.91447H153.703ZM162.871 26.4876C160.124 26.4876 157.845 27.4247 156.035 29.2989C154.225 31.173 153.32 33.6222 153.32 36.6464C153.32 39.7345 154.225 42.2369 156.035 44.1537C157.845 46.0491 160.124 46.9969 162.871 46.9969C165.534 46.9969 167.77 46.0278 169.58 44.0898C171.412 42.1517 172.327 39.6813 172.327 36.6784C172.327 33.6967 171.433 31.2582 169.644 29.3627C167.855 27.446 165.597 26.4876 162.871 26.4876Z" fill="white"/>
<path d="M128.577 19.3318H137.266V54.0889H128.577V50.4151C126.873 52.0337 125.158 53.205 123.433 53.9291C121.729 54.632 119.877 54.9834 117.875 54.9834C113.381 54.9834 109.494 53.2476 106.214 49.7762C102.935 46.2834 101.295 41.9494 101.295 36.7742C101.295 31.4073 102.881 27.0094 106.055 23.5806C109.228 20.1517 113.083 18.4373 117.619 18.4373C119.706 18.4373 121.666 18.8313 123.497 19.6193C125.329 20.4073 127.022 21.5893 128.577 23.1653V19.3318ZM119.408 26.4876C116.703 26.4876 114.456 27.446 112.667 29.3628C110.878 31.2582 109.984 33.6968 109.984 36.6784C109.984 39.6813 110.889 42.1518 112.699 44.0898C114.531 46.0279 116.778 46.9969 119.44 46.9969C122.187 46.9969 124.466 46.0492 126.276 44.1537C128.087 42.237 128.992 39.7345 128.992 36.6464C128.992 33.6222 128.087 31.173 126.276 29.2989C124.466 27.4247 122.177 26.4876 119.408 26.4876Z" fill="white"/>
<path d="M76 19.3318H81.5381C81.5594 14.7741 81.634 12.08 81.7618 11.2494C81.996 9.3327 82.7947 7.82059 84.1577 6.71314C85.542 5.58438 87.4907 5.02 90.0038 5.02C91.8141 5.02 93.8586 5.4353 96.1374 6.26589V12.9106C94.8809 12.5486 93.8479 12.3676 93.0387 12.3676C92.0164 12.3676 91.271 12.5805 90.8024 13.0065C90.4617 13.3259 90.2913 13.9861 90.2913 14.9871L90.2594 19.3318H99.2668L95.3924 26.7432H90.2594V54.0889H81.5381V26.7432H76L76 19.3318Z" fill="white"/>
<g clip-path="url(#clip1_1737_1254)">
<mask id="mask0_1737_1254" style="mask-type:alpha" maskUnits="userSpaceOnUse" x="0" y="0" width="60" height="60">
<rect width="60" height="60" rx="30" fill="#D9D9D9"/>
</mask>
<g mask="url(#mask0_1737_1254)">
<path fill-rule="evenodd" clip-rule="evenodd" d="M62.5 33.5C74.9264 33.5 85 23.4264 85 11C85 -1.42641 74.9264 -11.5 62.5 -11.5C50.0736 -11.5 40 -1.42641 40 11C40 23.4264 50.0736 33.5 62.5 33.5ZM62.5 41C79.0685 41 92.5 27.5685 92.5 11C92.5 -5.56854 79.0685 -19 62.5 -19C45.9315 -19 32.5 -5.56854 32.5 11C32.5 27.5685 45.9315 41 62.5 41Z" fill="#979CF1"/>
<path fill-rule="evenodd" clip-rule="evenodd" d="M30 17.5C42.4264 17.5 52.5 7.42641 52.5 -5C52.5 -17.4264 42.4264 -27.5 30 -27.5C17.5736 -27.5 7.5 -17.4264 7.5 -5C7.5 7.42641 17.5736 17.5 30 17.5ZM30 25C46.5685 25 60 11.5685 60 -5C60 -21.5685 46.5685 -35 30 -35C13.4315 -35 0 -21.5685 0 -5C0 11.5685 13.4315 25 30 25Z" fill="#535AE8"/>
<path fill-rule="evenodd" clip-rule="evenodd" d="M-2.5 33.5C9.92641 33.5 20 23.4264 20 11C20 -1.42641 9.92641 -11.5 -2.5 -11.5C-14.9264 -11.5 -25 -1.42641 -25 11C-25 23.4264 -14.9264 33.5 -2.5 33.5ZM-2.5 41C14.0685 41 27.5 27.5685 27.5 11C27.5 -5.56854 14.0685 -19 -2.5 -19C-19.0685 -19 -32.5 -5.56854 -32.5 11C-32.5 27.5685 -19.0685 41 -2.5 41Z" fill="#A371F7"/>
<path fill-rule="evenodd" clip-rule="evenodd" d="M-2.5 71.5C9.92641 71.5 20 61.4264 20 49C20 36.5736 9.92641 26.5 -2.5 26.5C-14.9264 26.5 -25 36.5736 -25 49C-25 61.4264 -14.9264 71.5 -2.5 71.5ZM-2.5 79C14.0685 79 27.5 65.5685 27.5 49C27.5 32.4315 14.0685 19 -2.5 19C-19.0685 19 -32.5 32.4315 -32.5 49C-32.5 65.5685 -19.0685 79 -2.5 79Z" fill="#979CF1"/>
<path fill-rule="evenodd" clip-rule="evenodd" d="M30 87.5C42.4264 87.5 52.5 77.4264 52.5 65C52.5 52.5736 42.4264 42.5 30 42.5C17.5736 42.5 7.5 52.5736 7.5 65C7.5 77.4264 17.5736 87.5 30 87.5ZM30 95C46.5685 95 60 81.5685 60 65C60 48.4315 46.5685 35 30 35C13.4315 35 0 48.4315 0 65C0 81.5685 13.4315 95 30 95Z" fill="#535AE8"/>
<path fill-rule="evenodd" clip-rule="evenodd" d="M62.5 71.5C74.9264 71.5 85 61.4264 85 49C85 36.5736 74.9264 26.5 62.5 26.5C50.0736 26.5 40 36.5736 40 49C40 61.4264 50.0736 71.5 62.5 71.5ZM62.5 79C79.0685 79 92.5 65.5685 92.5 49C92.5 32.4315 79.0685 19 62.5 19C45.9315 19 32.5 32.4315 32.5 49C32.5 65.5685 45.9315 79 62.5 79Z" fill="#A371F7"/>
<path d="M39.2825 30C40.8773 31.9465 42.7122 33.6889 44.7418 35.1819C46.3284 33.1457 48.2576 31.3896 50.4427 30C48.2576 28.6104 46.3284 26.8543 44.7418 24.8181C42.7122 26.3111 40.8773 28.0534 39.2825 30Z" fill="#979CF1"/>
</g>
</g>
</g>
<defs>
<clipPath id="clip0_1737_1254">
<rect width="263" height="60" fill="white"/>
</clipPath>
<clipPath id="clip1_1737_1254">
<rect width="60" height="60" fill="white"/>
</clipPath>
</defs>
</svg>
